<mxfile host="65bd71144e" modified="2021-01-12T22:56:07.294Z" agent="5.0 (Windows NT 10.0; Win64; x64) AppleWebKit/537.36 (KHTML, like Gecko) Code/1.52.1 Chrome/83.0.4103.122 Electron/9.3.5 Safari/537.36" etag="B0R7aEl_9mKum76lcewq" version="13.10.0" type="embed" pages="2">
    <diagram id="uq04VEFEQE6Xi56XoTHK" name="Communication Diagram">
        <mxGraphModel dx="1322" dy="605" grid="1" gridSize="10" guides="1" tooltips="1" connect="1" arrows="1" fold="1" page="1" pageScale="1" pageWidth="827" pageHeight="1169" math="0" shadow="0">
            <root>
                <mxCell id="0"/>
                <mxCell id="1" parent="0"/>
                <mxCell id="2" value="" style="edgeStyle=orthogonalEdgeStyle;rounded=0;orthogonalLoop=1;jettySize=auto;html=1;endArrow=none;endFill=0;strokeColor=#330000;entryX=-0.006;entryY=0.505;entryDx=0;entryDy=0;entryPerimeter=0;" parent="1" source="3" target="4" edge="1">
                    <mxGeometry relative="1" as="geometry">
                        <mxPoint x="250" y="510" as="targetPoint"/>
                    </mxGeometry>
                </mxCell>
                <mxCell id="3" value=":Patientrights&lt;br style=&quot;font-size: 13px&quot;&gt;UI" style="shape=umlBoundary;whiteSpace=wrap;html=1;fontSize=13;" parent="1" vertex="1">
                    <mxGeometry x="80" y="470" width="100" height="80" as="geometry"/>
                </mxCell>
                <mxCell id="4" value="&lt;font&gt;&lt;font style=&quot;font-size: 12px&quot;&gt;:Patientrights&lt;br&gt;Controller&lt;/font&gt;&lt;br style=&quot;font-size: 13px&quot;&gt;&lt;/font&gt;" style="ellipse;shape=umlControl;whiteSpace=wrap;html=1;fontSize=13;" parent="1" vertex="1">
                    <mxGeometry x="425" y="462.5" width="85" height="95" as="geometry"/>
                </mxCell>
                <mxCell id="5" value="" style="edgeStyle=orthogonalEdgeStyle;rounded=0;orthogonalLoop=1;jettySize=auto;html=1;endArrow=none;endFill=0;strokeColor=#330000;entryX=0.002;entryY=0.502;entryDx=0;entryDy=0;entryPerimeter=0;" parent="1" source="6" target="3" edge="1">
                    <mxGeometry relative="1" as="geometry">
                        <mxPoint x="-155" y="510" as="targetPoint"/>
                    </mxGeometry>
                </mxCell>
                <mxCell id="6" value="&lt;font style=&quot;font-size: 13px&quot;&gt;:พยาบาล&lt;/font&gt;" style="shape=umlActor;verticalLabelPosition=bottom;verticalAlign=top;html=1;" parent="1" vertex="1">
                    <mxGeometry x="-220" y="480" width="30" height="60" as="geometry"/>
                </mxCell>
                <mxCell id="7" value="u:User" style="ellipse;shape=umlEntity;whiteSpace=wrap;html=1;fontSize=13;" parent="1" vertex="1">
                    <mxGeometry x="140" y="620" width="80" height="80" as="geometry"/>
                </mxCell>
                <mxCell id="8" value="&lt;font style=&quot;font-size: 12px&quot;&gt;:Patien&lt;br&gt;trightstype&lt;/font&gt;" style="ellipse;shape=umlEntity;whiteSpace=wrap;html=1;fontSize=14;" parent="1" vertex="1">
                    <mxGeometry x="450" y="770" width="80" height="80" as="geometry"/>
                </mxCell>
                <mxCell id="9" value="&lt;font style=&quot;font-size: 12px&quot;&gt;:Insurance&lt;/font&gt;" style="ellipse;shape=umlEntity;whiteSpace=wrap;html=1;fontSize=13;" parent="1" vertex="1">
                    <mxGeometry x="630" y="740" width="80" height="80" as="geometry"/>
                </mxCell>
                <mxCell id="10" value="&lt;font style=&quot;font-size: 12px&quot;&gt;n, mname&lt;br&gt;:Medicalre&lt;br&gt;cordstaff&lt;/font&gt;" style="ellipse;shape=umlEntity;whiteSpace=wrap;html=1;fontSize=13;" parent="1" vertex="1">
                    <mxGeometry x="760" y="640" width="80" height="80" as="geometry"/>
                </mxCell>
                <mxCell id="11" value="&lt;font style=&quot;font-size: 12px&quot;&gt;:Patientrecord&lt;/font&gt;" style="ellipse;shape=umlEntity;whiteSpace=wrap;html=1;fontSize=13;" parent="1" vertex="1">
                    <mxGeometry x="260" y="760" width="80" height="80" as="geometry"/>
                </mxCell>
                <mxCell id="12" value="patientrights&lt;br style=&quot;font-size: 13px&quot;&gt;:Patientrights" style="ellipse;shape=umlEntity;whiteSpace=wrap;html=1;fillColor=#fad9d5;strokeColor=#ae4132;fontSize=13;" parent="1" vertex="1">
                    <mxGeometry x="760" y="470" width="90" height="90" as="geometry"/>
                </mxCell>
                <mxCell id="13" value="" style="endArrow=none;html=1;strokeColor=#330000;exitX=1;exitY=0;exitDx=0;exitDy=0;entryX=0.077;entryY=0.771;entryDx=0;entryDy=0;entryPerimeter=0;" parent="1" source="7" target="4" edge="1">
                    <mxGeometry width="50" height="50" relative="1" as="geometry">
                        <mxPoint x="350" y="590" as="sourcePoint"/>
                        <mxPoint x="400" y="540" as="targetPoint"/>
                    </mxGeometry>
                </mxCell>
                <mxCell id="14" value="" style="endArrow=none;html=1;strokeColor=#330000;entryX=0.201;entryY=0.919;entryDx=0;entryDy=0;entryPerimeter=0;exitX=0.5;exitY=0;exitDx=0;exitDy=0;" parent="1" source="11" target="4" edge="1">
                    <mxGeometry width="50" height="50" relative="1" as="geometry">
                        <mxPoint x="350" y="650" as="sourcePoint"/>
                        <mxPoint x="400" y="600" as="targetPoint"/>
                    </mxGeometry>
                </mxCell>
                <mxCell id="15" value="" style="endArrow=none;html=1;strokeColor=#330000;entryX=0.567;entryY=1.011;entryDx=0;entryDy=0;entryPerimeter=0;exitX=0.5;exitY=0;exitDx=0;exitDy=0;" parent="1" source="8" target="4" edge="1">
                    <mxGeometry width="50" height="50" relative="1" as="geometry">
                        <mxPoint x="350" y="710" as="sourcePoint"/>
                        <mxPoint x="400" y="660" as="targetPoint"/>
                    </mxGeometry>
                </mxCell>
                <mxCell id="16" value="" style="endArrow=none;html=1;strokeColor=#330000;exitX=0.5;exitY=0;exitDx=0;exitDy=0;entryX=0.769;entryY=0.942;entryDx=0;entryDy=0;entryPerimeter=0;" parent="1" source="9" target="4" edge="1">
                    <mxGeometry width="50" height="50" relative="1" as="geometry">
                        <mxPoint x="550" y="710" as="sourcePoint"/>
                        <mxPoint x="480" y="538" as="targetPoint"/>
                    </mxGeometry>
                </mxCell>
                <mxCell id="17" value="" style="endArrow=none;html=1;strokeColor=#330000;entryX=0.965;entryY=0.725;entryDx=0;entryDy=0;entryPerimeter=0;exitX=0;exitY=0;exitDx=0;exitDy=0;" parent="1" source="10" target="4" edge="1">
                    <mxGeometry width="50" height="50" relative="1" as="geometry">
                        <mxPoint x="550" y="650" as="sourcePoint"/>
                        <mxPoint x="600" y="600" as="targetPoint"/>
                    </mxGeometry>
                </mxCell>
                <mxCell id="18" value="" style="endArrow=none;html=1;strokeColor=#330000;entryX=0;entryY=0.5;entryDx=0;entryDy=0;exitX=0.998;exitY=0.571;exitDx=0;exitDy=0;exitPerimeter=0;" parent="1" source="4" target="12" edge="1">
                    <mxGeometry width="50" height="50" relative="1" as="geometry">
                        <mxPoint x="500" y="510" as="sourcePoint"/>
                        <mxPoint x="600" y="600" as="targetPoint"/>
                    </mxGeometry>
                </mxCell>
                <mxCell id="19" value="&lt;font style=&quot;font-size: 12px&quot;&gt;1: เปิด()&lt;/font&gt;" style="text;html=1;strokeColor=none;fillColor=none;align=center;verticalAlign=middle;whiteSpace=wrap;rounded=0;fontSize=13;" parent="1" vertex="1">
                    <mxGeometry x="-90" y="540" width="50" height="20" as="geometry"/>
                </mxCell>
                <mxCell id="20" value="" style="endArrow=block;html=1;strokeColor=#330000;endFill=1;" parent="1" edge="1">
                    <mxGeometry width="50" height="50" relative="1" as="geometry">
                        <mxPoint x="-120" y="520" as="sourcePoint"/>
                        <mxPoint x="20" y="520" as="targetPoint"/>
                    </mxGeometry>
                </mxCell>
                <mxCell id="21" value="" style="endArrow=block;html=1;strokeColor=#330000;endFill=1;" parent="1" edge="1">
                    <mxGeometry width="50" height="50" relative="1" as="geometry">
                        <mxPoint x="233" y="500" as="sourcePoint"/>
                        <mxPoint x="373" y="500" as="targetPoint"/>
                    </mxGeometry>
                </mxCell>
                <mxCell id="22" value="&lt;font style=&quot;font-size: 12px&quot;&gt;2: โหลดข้อมูลสมาชิก(email)&lt;/font&gt;" style="text;html=1;strokeColor=none;fillColor=none;align=center;verticalAlign=middle;whiteSpace=wrap;rounded=0;" parent="1" vertex="1">
                    <mxGeometry x="223" y="476" width="160" height="20" as="geometry"/>
                </mxCell>
                <mxCell id="23" value="" style="endArrow=block;html=1;strokeColor=#330000;endFill=1;" parent="1" edge="1">
                    <mxGeometry width="50" height="50" relative="1" as="geometry">
                        <mxPoint x="233" y="468" as="sourcePoint"/>
                        <mxPoint x="373" y="468" as="targetPoint"/>
                    </mxGeometry>
                </mxCell>
                <mxCell id="24" value="3: ค้นหาด้วยอีเมล์(email)" style="text;html=1;strokeColor=none;fillColor=none;align=center;verticalAlign=middle;whiteSpace=wrap;rounded=0;fontSize=13;" parent="1" vertex="1">
                    <mxGeometry x="223" y="530" width="140" height="20" as="geometry"/>
                </mxCell>
                <mxCell id="25" value="" style="endArrow=block;html=1;strokeColor=#330000;endFill=1;" parent="1" edge="1">
                    <mxGeometry width="50" height="50" relative="1" as="geometry">
                        <mxPoint x="400" y="540" as="sourcePoint"/>
                        <mxPoint x="330" y="570" as="targetPoint"/>
                    </mxGeometry>
                </mxCell>
                <mxCell id="26" value="" style="endArrow=block;html=1;strokeColor=#330000;endFill=1;" parent="1" edge="1">
                    <mxGeometry width="50" height="50" relative="1" as="geometry">
                        <mxPoint x="310" y="580" as="sourcePoint"/>
                        <mxPoint x="240" y="610" as="targetPoint"/>
                    </mxGeometry>
                </mxCell>
                <mxCell id="27" value="4: ดึงข้อมูลทั้งหมด()" style="text;html=1;strokeColor=none;fillColor=none;align=center;verticalAlign=middle;whiteSpace=wrap;rounded=0;fontSize=13;" parent="1" vertex="1">
                    <mxGeometry x="250" y="620" width="120" height="20" as="geometry"/>
                </mxCell>
                <mxCell id="28" value="4: ดึงข้อมูลทั้งหมด()" style="text;html=1;strokeColor=none;fillColor=none;align=center;verticalAlign=middle;whiteSpace=wrap;rounded=0;fontSize=13;" parent="1" vertex="1">
                    <mxGeometry x="350" y="690" width="120" height="20" as="geometry"/>
                </mxCell>
                <mxCell id="29" value="4: ดึงข้อมูลทั้งหมด()" style="text;html=1;strokeColor=none;fillColor=none;align=center;verticalAlign=middle;whiteSpace=wrap;rounded=0;fontSize=13;" parent="1" vertex="1">
                    <mxGeometry x="490" y="680" width="120" height="20" as="geometry"/>
                </mxCell>
                <mxCell id="30" value="4: ดึงข้อมูลทั้งหมด()" style="text;html=1;strokeColor=none;fillColor=none;align=center;verticalAlign=middle;whiteSpace=wrap;rounded=0;fontSize=13;" parent="1" vertex="1">
                    <mxGeometry x="610" y="640" width="120" height="20" as="geometry"/>
                </mxCell>
                <mxCell id="31" value="5: u = ค้นหาด้วยอีเมล์(email)" style="text;html=1;strokeColor=none;fillColor=none;align=center;verticalAlign=middle;whiteSpace=wrap;rounded=0;fontSize=13;" parent="1" vertex="1">
                    <mxGeometry x="130" y="570" width="160" height="20" as="geometry"/>
                </mxCell>
                <mxCell id="32" value="6: m = ค้นหาด้วยmedicalrecordstaff(u)" style="text;html=1;strokeColor=none;fillColor=none;align=center;verticalAlign=middle;whiteSpace=wrap;rounded=0;fontSize=13;" parent="1" vertex="1">
                    <mxGeometry x="710" y="600" width="150" height="20" as="geometry"/>
                </mxCell>
                <mxCell id="33" value="7: mname = ค้นหาด้วยpatientrecord(p)" style="text;html=1;strokeColor=none;fillColor=none;align=center;verticalAlign=middle;whiteSpace=wrap;rounded=0;fontSize=13;" parent="1" vertex="1">
                    <mxGeometry x="610" y="560" width="190" height="20" as="geometry"/>
                </mxCell>
                <mxCell id="35" value="&lt;font style=&quot;font-size: 13px&quot;&gt;9: เพิ่มข้อมูลสิทธิ์ผู้ป่วย(&lt;span style=&quot;font-size: 12px&quot;&gt;m, pt, pc, i&lt;/span&gt;)&amp;nbsp;&lt;/font&gt;" style="text;html=1;strokeColor=none;fillColor=none;align=center;verticalAlign=middle;whiteSpace=wrap;rounded=0;" parent="1" vertex="1">
                    <mxGeometry x="177.5" y="430" width="265" height="20" as="geometry"/>
                </mxCell>
                <mxCell id="36" value="10:&amp;nbsp; patientrights = สร้าง(m, pt, pc , i, date)" style="text;html=1;strokeColor=none;fillColor=none;align=center;verticalAlign=middle;whiteSpace=wrap;rounded=0;fontSize=13;" parent="1" vertex="1">
                    <mxGeometry x="550" y="476" width="185" height="20" as="geometry"/>
                </mxCell>
                <mxCell id="37" value="11: บันทึก()" style="text;html=1;strokeColor=none;fillColor=none;align=center;verticalAlign=middle;whiteSpace=wrap;rounded=0;fontSize=13;" parent="1" vertex="1">
                    <mxGeometry x="610" y="440" width="82" height="20" as="geometry"/>
                </mxCell>
                <mxCell id="38" value="" style="endArrow=block;html=1;strokeColor=#330000;endFill=1;" parent="1" edge="1">
                    <mxGeometry width="50" height="50" relative="1" as="geometry">
                        <mxPoint x="573.5" y="465.6600000000001" as="sourcePoint"/>
                        <mxPoint x="713.5" y="465.6600000000001" as="targetPoint"/>
                    </mxGeometry>
                </mxCell>
                <mxCell id="39" value="" style="endArrow=block;html=1;strokeColor=#330000;endFill=1;" parent="1" edge="1">
                    <mxGeometry width="50" height="50" relative="1" as="geometry">
                        <mxPoint x="574.5" y="509.6600000000001" as="sourcePoint"/>
                        <mxPoint x="714.5" y="509.6600000000001" as="targetPoint"/>
                    </mxGeometry>
                </mxCell>
                <mxCell id="40" value="" style="endArrow=block;html=1;strokeColor=#330000;endFill=1;" parent="1" edge="1">
                    <mxGeometry width="50" height="50" relative="1" as="geometry">
                        <mxPoint x="400" y="590" as="sourcePoint"/>
                        <mxPoint x="340" y="680" as="targetPoint"/>
                    </mxGeometry>
                </mxCell>
                <mxCell id="41" value="" style="endArrow=block;html=1;strokeColor=#330000;endFill=1;" parent="1" edge="1">
                    <mxGeometry width="50" height="50" relative="1" as="geometry">
                        <mxPoint x="469" y="644" as="sourcePoint"/>
                        <mxPoint x="479" y="754" as="targetPoint"/>
                    </mxGeometry>
                </mxCell>
                <mxCell id="42" value="" style="endArrow=block;html=1;strokeColor=#330000;endFill=1;" parent="1" edge="1">
                    <mxGeometry width="50" height="50" relative="1" as="geometry">
                        <mxPoint x="540" y="615" as="sourcePoint"/>
                        <mxPoint x="620" y="700" as="targetPoint"/>
                    </mxGeometry>
                </mxCell>
                <mxCell id="43" value="" style="endArrow=block;html=1;strokeColor=#330000;endFill=1;" parent="1" edge="1">
                    <mxGeometry width="50" height="50" relative="1" as="geometry">
                        <mxPoint x="678" y="620" as="sourcePoint"/>
                        <mxPoint x="748" y="650" as="targetPoint"/>
                    </mxGeometry>
                </mxCell>
                <mxCell id="44" value="" style="endArrow=block;html=1;strokeColor=#330000;endFill=1;" parent="1" edge="1">
                    <mxGeometry width="50" height="50" relative="1" as="geometry">
                        <mxPoint x="690" y="608" as="sourcePoint"/>
                        <mxPoint x="760" y="638" as="targetPoint"/>
                    </mxGeometry>
                </mxCell>
                <mxCell id="45" value="" style="endArrow=block;html=1;strokeColor=#330000;endFill=1;" parent="1" edge="1">
                    <mxGeometry width="50" height="50" relative="1" as="geometry">
                        <mxPoint x="590" y="564" as="sourcePoint"/>
                        <mxPoint x="660" y="594" as="targetPoint"/>
                    </mxGeometry>
                </mxCell>
                <mxCell id="46" value="" style="endArrow=block;html=1;strokeColor=#330000;endFill=1;" parent="1" edge="1">
                    <mxGeometry width="50" height="50" relative="1" as="geometry">
                        <mxPoint x="-120" y="500" as="sourcePoint"/>
                        <mxPoint x="20" y="500" as="targetPoint"/>
                    </mxGeometry>
                </mxCell>
                <mxCell id="51" value="&lt;font style=&quot;font-size: 12px&quot;&gt;8: เพิ่มข้อมูล(m, pt, pc, i)&lt;/font&gt;" style="text;html=1;strokeColor=none;fillColor=none;align=center;verticalAlign=middle;whiteSpace=wrap;rounded=0;" parent="1" vertex="1">
                    <mxGeometry x="-140" y="460" width="207" height="20" as="geometry"/>
                </mxCell>
            </root>
        </mxGraphModel>
    </diagram>
    <diagram id="9OtMg5kcq7ys0b88Z_S4" name="Page-2">
        <mxGraphModel dx="1322" dy="605" grid="1" gridSize="10" guides="1" tooltips="1" connect="1" arrows="1" fold="1" page="1" pageScale="1" pageWidth="827" pageHeight="1169" math="0" shadow="0">
            <root>
                <mxCell id="KtXMnVQGv9gxdhzujqgW-0"/>
                <mxCell id="KtXMnVQGv9gxdhzujqgW-1" parent="KtXMnVQGv9gxdhzujqgW-0"/>
                <mxCell id="KtXMnVQGv9gxdhzujqgW-2" value="Patientrights&lt;br style=&quot;font-size: 13px&quot;&gt;UI" style="shape=umlBoundary;whiteSpace=wrap;html=1;fontSize=13;" parent="KtXMnVQGv9gxdhzujqgW-1" vertex="1">
                    <mxGeometry x="-260" y="100" width="100" height="80" as="geometry"/>
                </mxCell>
                <mxCell id="KtXMnVQGv9gxdhzujqgW-3" value="&lt;font style=&quot;font-size: 13px&quot;&gt;Patientrights&lt;br&gt;Controller&lt;br&gt;&lt;/font&gt;" style="ellipse;shape=umlControl;whiteSpace=wrap;html=1;" parent="KtXMnVQGv9gxdhzujqgW-1" vertex="1">
                    <mxGeometry x="-20" y="90" width="80" height="90" as="geometry"/>
                </mxCell>
                <mxCell id="KtXMnVQGv9gxdhzujqgW-20" value="&lt;&lt;Entity&gt;&gt;&#10;Insurance" style="swimlane;fontStyle=0;childLayout=stackLayout;horizontal=1;startSize=40;fillColor=none;horizontalStack=0;resizeParent=1;resizeParentMax=0;resizeLast=0;collapsible=1;marginBottom=0;" parent="KtXMnVQGv9gxdhzujqgW-1" vertex="1">
                    <mxGeometry x="603.57" y="227" width="186.43" height="92" as="geometry"/>
                </mxCell>
                <mxCell id="KtXMnVQGv9gxdhzujqgW-21" value="+ id: int" style="text;strokeColor=none;fillColor=none;align=left;verticalAlign=top;spacingLeft=4;spacingRight=4;overflow=hidden;rotatable=0;points=[[0,0.5],[1,0.5]];portConstraint=eastwest;" parent="KtXMnVQGv9gxdhzujqgW-20" vertex="1">
                    <mxGeometry y="40" width="186.43" height="26" as="geometry"/>
                </mxCell>
                <mxCell id="KtXMnVQGv9gxdhzujqgW-22" value="+ Insurancecompany: String" style="text;strokeColor=none;fillColor=none;align=left;verticalAlign=top;spacingLeft=4;spacingRight=4;overflow=hidden;rotatable=0;points=[[0,0.5],[1,0.5]];portConstraint=eastwest;" parent="KtXMnVQGv9gxdhzujqgW-20" vertex="1">
                    <mxGeometry y="66" width="186.43" height="26" as="geometry"/>
                </mxCell>
                <mxCell id="KtXMnVQGv9gxdhzujqgW-27" value="" style="endArrow=diamondThin;html=1;strokeColor=#330000;exitX=1;exitY=0.5;exitDx=0;exitDy=0;entryX=0;entryY=0.5;entryDx=0;entryDy=0;endFill=0;endSize=25;" parent="KtXMnVQGv9gxdhzujqgW-1" source="KtXMnVQGv9gxdhzujqgW-41" target="KtXMnVQGv9gxdhzujqgW-70" edge="1">
                    <mxGeometry width="50" height="50" relative="1" as="geometry">
                        <mxPoint x="50" y="225.5" as="sourcePoint"/>
                        <mxPoint x="210" y="257" as="targetPoint"/>
                    </mxGeometry>
                </mxCell>
                <mxCell id="KtXMnVQGv9gxdhzujqgW-28" value="1" style="edgeLabel;html=1;align=center;verticalAlign=middle;resizable=0;points=[];fontSize=12;" parent="KtXMnVQGv9gxdhzujqgW-27" vertex="1" connectable="0">
                    <mxGeometry x="-0.8143" relative="1" as="geometry">
                        <mxPoint y="-9" as="offset"/>
                    </mxGeometry>
                </mxCell>
                <mxCell id="KtXMnVQGv9gxdhzujqgW-29" value="0..*" style="edgeLabel;html=1;align=center;verticalAlign=middle;resizable=0;points=[];fontSize=12;" parent="KtXMnVQGv9gxdhzujqgW-27" vertex="1" connectable="0">
                    <mxGeometry x="0.5559" y="2" relative="1" as="geometry">
                        <mxPoint x="-3" y="-8.5" as="offset"/>
                    </mxGeometry>
                </mxCell>
                <mxCell id="KtXMnVQGv9gxdhzujqgW-30" value="" style="endArrow=diamondThin;html=1;strokeColor=#330000;entryX=1;entryY=0.5;entryDx=0;entryDy=0;endFill=0;endSize=25;" parent="KtXMnVQGv9gxdhzujqgW-1" source="KtXMnVQGv9gxdhzujqgW-20" target="KtXMnVQGv9gxdhzujqgW-70" edge="1">
                    <mxGeometry width="50" height="50" relative="1" as="geometry">
                        <mxPoint x="160" y="269.5" as="sourcePoint"/>
                        <mxPoint x="450" y="265" as="targetPoint"/>
                    </mxGeometry>
                </mxCell>
                <mxCell id="KtXMnVQGv9gxdhzujqgW-31" value="1" style="edgeLabel;html=1;align=center;verticalAlign=middle;resizable=0;points=[];fontSize=12;" parent="KtXMnVQGv9gxdhzujqgW-30" vertex="1" connectable="0">
                    <mxGeometry x="-0.8143" relative="1" as="geometry">
                        <mxPoint y="-11" as="offset"/>
                    </mxGeometry>
                </mxCell>
                <mxCell id="KtXMnVQGv9gxdhzujqgW-32" value="0..*" style="edgeLabel;html=1;align=center;verticalAlign=middle;resizable=0;points=[];fontSize=12;" parent="KtXMnVQGv9gxdhzujqgW-30" vertex="1" connectable="0">
                    <mxGeometry x="0.5559" y="2" relative="1" as="geometry">
                        <mxPoint x="-8" y="-11.5" as="offset"/>
                    </mxGeometry>
                </mxCell>
                <mxCell id="KtXMnVQGv9gxdhzujqgW-39" value="&lt;&lt;Entity&gt;&gt;&#10;Patientrecord" style="swimlane;fontStyle=0;childLayout=stackLayout;horizontal=1;startSize=30;fillColor=none;horizontalStack=0;resizeParent=1;resizeParentMax=0;resizeLast=0;collapsible=1;marginBottom=0;" parent="KtXMnVQGv9gxdhzujqgW-1" vertex="1">
                    <mxGeometry x="-60" y="230" width="140" height="316" as="geometry">
                        <mxRectangle x="200" y="510" width="100" height="30" as="alternateBounds"/>
                    </mxGeometry>
                </mxCell>
                <mxCell id="KtXMnVQGv9gxdhzujqgW-40" value="+ id: int" style="text;strokeColor=none;fillColor=none;align=left;verticalAlign=top;spacingLeft=4;spacingRight=4;overflow=hidden;rotatable=0;points=[[0,0.5],[1,0.5]];portConstraint=eastwest;" parent="KtXMnVQGv9gxdhzujqgW-39" vertex="1">
                    <mxGeometry y="30" width="140" height="26" as="geometry"/>
                </mxCell>
                <mxCell id="KtXMnVQGv9gxdhzujqgW-41" value="+ Name: string" style="text;strokeColor=none;fillColor=none;align=left;verticalAlign=top;spacingLeft=4;spacingRight=4;overflow=hidden;rotatable=0;points=[[0,0.5],[1,0.5]];portConstraint=eastwest;" parent="KtXMnVQGv9gxdhzujqgW-39" vertex="1">
                    <mxGeometry y="56" width="140" height="26" as="geometry"/>
                </mxCell>
                <mxCell id="KtXMnVQGv9gxdhzujqgW-42" value="+ Idcardnumber: int" style="text;strokeColor=none;fillColor=none;align=left;verticalAlign=top;spacingLeft=4;spacingRight=4;overflow=hidden;rotatable=0;points=[[0,0.5],[1,0.5]];portConstraint=eastwest;" parent="KtXMnVQGv9gxdhzujqgW-39" vertex="1">
                    <mxGeometry y="82" width="140" height="26" as="geometry"/>
                </mxCell>
                <mxCell id="KtXMnVQGv9gxdhzujqgW-43" value="+ Age: int" style="text;strokeColor=none;fillColor=none;align=left;verticalAlign=top;spacingLeft=4;spacingRight=4;overflow=hidden;rotatable=0;points=[[0,0.5],[1,0.5]];portConstraint=eastwest;" parent="KtXMnVQGv9gxdhzujqgW-39" vertex="1">
                    <mxGeometry y="108" width="140" height="26" as="geometry"/>
                </mxCell>
                <mxCell id="KtXMnVQGv9gxdhzujqgW-44" value="+ Bloodtype: string" style="text;strokeColor=none;fillColor=none;align=left;verticalAlign=top;spacingLeft=4;spacingRight=4;overflow=hidden;rotatable=0;points=[[0,0.5],[1,0.5]];portConstraint=eastwest;" parent="KtXMnVQGv9gxdhzujqgW-39" vertex="1">
                    <mxGeometry y="134" width="140" height="26" as="geometry"/>
                </mxCell>
                <mxCell id="KtXMnVQGv9gxdhzujqgW-45" value="+ Disease: string" style="text;strokeColor=none;fillColor=none;align=left;verticalAlign=top;spacingLeft=4;spacingRight=4;overflow=hidden;rotatable=0;points=[[0,0.5],[1,0.5]];portConstraint=eastwest;" parent="KtXMnVQGv9gxdhzujqgW-39" vertex="1">
                    <mxGeometry y="160" width="140" height="26" as="geometry"/>
                </mxCell>
                <mxCell id="KtXMnVQGv9gxdhzujqgW-46" value="+ Allergic: string" style="text;strokeColor=none;fillColor=none;align=left;verticalAlign=top;spacingLeft=4;spacingRight=4;overflow=hidden;rotatable=0;points=[[0,0.5],[1,0.5]];portConstraint=eastwest;" parent="KtXMnVQGv9gxdhzujqgW-39" vertex="1">
                    <mxGeometry y="186" width="140" height="26" as="geometry"/>
                </mxCell>
                <mxCell id="KtXMnVQGv9gxdhzujqgW-47" value="+ Phonenumber: string" style="text;strokeColor=none;fillColor=none;align=left;verticalAlign=top;spacingLeft=4;spacingRight=4;overflow=hidden;rotatable=0;points=[[0,0.5],[1,0.5]];portConstraint=eastwest;" parent="KtXMnVQGv9gxdhzujqgW-39" vertex="1">
                    <mxGeometry y="212" width="140" height="26" as="geometry"/>
                </mxCell>
                <mxCell id="KtXMnVQGv9gxdhzujqgW-48" value="+ Email: string" style="text;strokeColor=none;fillColor=none;align=left;verticalAlign=top;spacingLeft=4;spacingRight=4;overflow=hidden;rotatable=0;points=[[0,0.5],[1,0.5]];portConstraint=eastwest;" parent="KtXMnVQGv9gxdhzujqgW-39" vertex="1">
                    <mxGeometry y="238" width="140" height="26" as="geometry"/>
                </mxCell>
                <mxCell id="KtXMnVQGv9gxdhzujqgW-49" value="+ Home: string" style="text;strokeColor=none;fillColor=none;align=left;verticalAlign=top;spacingLeft=4;spacingRight=4;overflow=hidden;rotatable=0;points=[[0,0.5],[1,0.5]];portConstraint=eastwest;" parent="KtXMnVQGv9gxdhzujqgW-39" vertex="1">
                    <mxGeometry y="264" width="140" height="26" as="geometry"/>
                </mxCell>
                <mxCell id="KtXMnVQGv9gxdhzujqgW-50" value="+ Date: time" style="text;strokeColor=none;fillColor=none;align=left;verticalAlign=top;spacingLeft=4;spacingRight=4;overflow=hidden;rotatable=0;points=[[0,0.5],[1,0.5]];portConstraint=eastwest;" parent="KtXMnVQGv9gxdhzujqgW-39" vertex="1">
                    <mxGeometry y="290" width="140" height="26" as="geometry"/>
                </mxCell>
                <mxCell id="KtXMnVQGv9gxdhzujqgW-51" value="&lt;&lt;Entity&gt;&gt;&#10;Prename" style="swimlane;fontStyle=0;childLayout=stackLayout;horizontal=1;startSize=30;fillColor=none;horizontalStack=0;resizeParent=1;resizeParentMax=0;resizeLast=0;collapsible=1;marginBottom=0;" parent="KtXMnVQGv9gxdhzujqgW-1" vertex="1">
                    <mxGeometry x="-320" y="246" width="140" height="82" as="geometry"/>
                </mxCell>
                <mxCell id="KtXMnVQGv9gxdhzujqgW-52" value="+ id: int" style="text;strokeColor=none;fillColor=none;align=left;verticalAlign=top;spacingLeft=4;spacingRight=4;overflow=hidden;rotatable=0;points=[[0,0.5],[1,0.5]];portConstraint=eastwest;" parent="KtXMnVQGv9gxdhzujqgW-51" vertex="1">
                    <mxGeometry y="30" width="140" height="26" as="geometry"/>
                </mxCell>
                <mxCell id="KtXMnVQGv9gxdhzujqgW-53" value="+ Prefix: string" style="text;strokeColor=none;fillColor=none;align=left;verticalAlign=top;spacingLeft=4;spacingRight=4;overflow=hidden;rotatable=0;points=[[0,0.5],[1,0.5]];portConstraint=eastwest;" parent="KtXMnVQGv9gxdhzujqgW-51" vertex="1">
                    <mxGeometry y="56" width="140" height="26" as="geometry"/>
                </mxCell>
                <mxCell id="KtXMnVQGv9gxdhzujqgW-54" value="&lt;&lt;Entity&gt;&gt;&#10;Gender" style="swimlane;fontStyle=0;childLayout=stackLayout;horizontal=1;startSize=30;fillColor=none;horizontalStack=0;resizeParent=1;resizeParentMax=0;resizeLast=0;collapsible=1;marginBottom=0;" parent="KtXMnVQGv9gxdhzujqgW-1" vertex="1">
                    <mxGeometry x="-320" y="347" width="140" height="82" as="geometry"/>
                </mxCell>
                <mxCell id="KtXMnVQGv9gxdhzujqgW-55" value="+ id: int" style="text;strokeColor=none;fillColor=none;align=left;verticalAlign=top;spacingLeft=4;spacingRight=4;overflow=hidden;rotatable=0;points=[[0,0.5],[1,0.5]];portConstraint=eastwest;" parent="KtXMnVQGv9gxdhzujqgW-54" vertex="1">
                    <mxGeometry y="30" width="140" height="26" as="geometry"/>
                </mxCell>
                <mxCell id="KtXMnVQGv9gxdhzujqgW-56" value="+ Genderstatus" style="text;strokeColor=none;fillColor=none;align=left;verticalAlign=top;spacingLeft=4;spacingRight=4;overflow=hidden;rotatable=0;points=[[0,0.5],[1,0.5]];portConstraint=eastwest;" parent="KtXMnVQGv9gxdhzujqgW-54" vertex="1">
                    <mxGeometry y="56" width="140" height="26" as="geometry"/>
                </mxCell>
                <mxCell id="KtXMnVQGv9gxdhzujqgW-57" value="&lt;&lt;Entity&gt;&gt;&#10;Medicalrecordstaff" style="swimlane;fontStyle=0;childLayout=stackLayout;horizontal=1;startSize=30;fillColor=none;horizontalStack=0;resizeParent=1;resizeParentMax=0;resizeLast=0;collapsible=1;marginBottom=0;" parent="KtXMnVQGv9gxdhzujqgW-1" vertex="1">
                    <mxGeometry x="-320" y="450" width="140" height="82" as="geometry"/>
                </mxCell>
                <mxCell id="KtXMnVQGv9gxdhzujqgW-58" value="+ id: int" style="text;strokeColor=none;fillColor=none;align=left;verticalAlign=top;spacingLeft=4;spacingRight=4;overflow=hidden;rotatable=0;points=[[0,0.5],[1,0.5]];portConstraint=eastwest;" parent="KtXMnVQGv9gxdhzujqgW-57" vertex="1">
                    <mxGeometry y="30" width="140" height="26" as="geometry"/>
                </mxCell>
                <mxCell id="KtXMnVQGv9gxdhzujqgW-59" value="+ Name: string" style="text;strokeColor=none;fillColor=none;align=left;verticalAlign=top;spacingLeft=4;spacingRight=4;overflow=hidden;rotatable=0;points=[[0,0.5],[1,0.5]];portConstraint=eastwest;" parent="KtXMnVQGv9gxdhzujqgW-57" vertex="1">
                    <mxGeometry y="56" width="140" height="26" as="geometry"/>
                </mxCell>
                <mxCell id="KtXMnVQGv9gxdhzujqgW-60" style="edgeStyle=none;rounded=0;orthogonalLoop=1;jettySize=auto;html=1;entryX=1;entryY=0.5;entryDx=0;entryDy=0;endArrow=none;endFill=0;fontColor=#000000;startArrow=diamondThin;startFill=0;startSize=25;exitX=0;exitY=0.5;exitDx=0;exitDy=0;" parent="KtXMnVQGv9gxdhzujqgW-1" source="KtXMnVQGv9gxdhzujqgW-43" target="KtXMnVQGv9gxdhzujqgW-52" edge="1">
                    <mxGeometry relative="1" as="geometry">
                        <mxPoint x="80" y="389" as="sourcePoint"/>
                    </mxGeometry>
                </mxCell>
                <mxCell id="KtXMnVQGv9gxdhzujqgW-61" value="1" style="edgeLabel;html=1;align=center;verticalAlign=middle;resizable=0;points=[];fontColor=#000000;" parent="KtXMnVQGv9gxdhzujqgW-60" vertex="1" connectable="0">
                    <mxGeometry x="0.8264" y="2" relative="1" as="geometry">
                        <mxPoint x="-3.71" y="-14.579999999999998" as="offset"/>
                    </mxGeometry>
                </mxCell>
                <mxCell id="KtXMnVQGv9gxdhzujqgW-62" value="0..*" style="edgeLabel;html=1;align=center;verticalAlign=middle;resizable=0;points=[];fontColor=#000000;" parent="KtXMnVQGv9gxdhzujqgW-60" vertex="1" connectable="0">
                    <mxGeometry x="-0.5872" y="-3" relative="1" as="geometry">
                        <mxPoint x="-7.59" y="-12.76" as="offset"/>
                    </mxGeometry>
                </mxCell>
                <mxCell id="KtXMnVQGv9gxdhzujqgW-63" style="edgeStyle=none;rounded=0;orthogonalLoop=1;jettySize=auto;html=1;entryX=1;entryY=0.5;entryDx=0;entryDy=0;endArrow=none;endFill=0;fontColor=#000000;startArrow=diamondThin;startFill=0;startSize=25;exitX=0;exitY=0.5;exitDx=0;exitDy=0;" parent="KtXMnVQGv9gxdhzujqgW-1" source="KtXMnVQGv9gxdhzujqgW-44" target="KtXMnVQGv9gxdhzujqgW-55" edge="1">
                    <mxGeometry relative="1" as="geometry">
                        <mxPoint x="81" y="421" as="sourcePoint"/>
                    </mxGeometry>
                </mxCell>
                <mxCell id="KtXMnVQGv9gxdhzujqgW-64" value="1" style="edgeLabel;html=1;align=center;verticalAlign=middle;resizable=0;points=[];fontColor=#000000;" parent="KtXMnVQGv9gxdhzujqgW-63" vertex="1" connectable="0">
                    <mxGeometry x="0.895" y="1" relative="1" as="geometry">
                        <mxPoint y="-12" as="offset"/>
                    </mxGeometry>
                </mxCell>
                <mxCell id="KtXMnVQGv9gxdhzujqgW-65" value="0..*" style="edgeLabel;html=1;align=center;verticalAlign=middle;resizable=0;points=[];fontColor=#000000;" parent="KtXMnVQGv9gxdhzujqgW-63" vertex="1" connectable="0">
                    <mxGeometry x="-0.5464" y="4" relative="1" as="geometry">
                        <mxPoint x="-6" y="-13" as="offset"/>
                    </mxGeometry>
                </mxCell>
                <mxCell id="KtXMnVQGv9gxdhzujqgW-66" style="edgeStyle=none;rounded=0;orthogonalLoop=1;jettySize=auto;html=1;exitX=0;exitY=0.5;exitDx=0;exitDy=0;entryX=1;entryY=0.5;entryDx=0;entryDy=0;endArrow=none;endFill=0;fontColor=#000000;startArrow=diamondThin;startFill=0;targetPerimeterSpacing=6;startSize=25;" parent="KtXMnVQGv9gxdhzujqgW-1" source="KtXMnVQGv9gxdhzujqgW-45" target="KtXMnVQGv9gxdhzujqgW-58" edge="1">
                    <mxGeometry relative="1" as="geometry"/>
                </mxCell>
                <mxCell id="KtXMnVQGv9gxdhzujqgW-67" value="1" style="edgeLabel;html=1;align=center;verticalAlign=middle;resizable=0;points=[];fontColor=#000000;" parent="KtXMnVQGv9gxdhzujqgW-66" vertex="1" connectable="0">
                    <mxGeometry x="0.7333" y="-1" relative="1" as="geometry">
                        <mxPoint x="-6.18" y="-7.710000000000001" as="offset"/>
                    </mxGeometry>
                </mxCell>
                <mxCell id="KtXMnVQGv9gxdhzujqgW-68" value="0..*" style="edgeLabel;html=1;align=center;verticalAlign=middle;resizable=0;points=[];fontColor=#000000;" parent="KtXMnVQGv9gxdhzujqgW-66" vertex="1" connectable="0">
                    <mxGeometry x="-0.5511" y="-2" relative="1" as="geometry">
                        <mxPoint x="-3" y="-9.91" as="offset"/>
                    </mxGeometry>
                </mxCell>
                <mxCell id="KtXMnVQGv9gxdhzujqgW-69" value="&lt;&lt;Entity&gt;&gt;&#10;PatientRights" style="swimlane;fontStyle=0;childLayout=stackLayout;horizontal=1;startSize=40;fillColor=#fff2cc;horizontalStack=0;resizeParent=1;resizeParentMax=0;resizeLast=0;collapsible=1;marginBottom=0;strokeColor=#d6b656;" parent="KtXMnVQGv9gxdhzujqgW-1" vertex="1">
                    <mxGeometry x="220" y="220" width="220" height="92" as="geometry">
                        <mxRectangle x="220" y="220" width="100" height="26" as="alternateBounds"/>
                    </mxGeometry>
                </mxCell>
                <mxCell id="KtXMnVQGv9gxdhzujqgW-70" value="+ id: int" style="text;strokeColor=none;fillColor=none;align=left;verticalAlign=top;spacingLeft=4;spacingRight=4;overflow=hidden;rotatable=0;points=[[0,0.5],[1,0.5]];portConstraint=eastwest;" parent="KtXMnVQGv9gxdhzujqgW-69" vertex="1">
                    <mxGeometry y="40" width="220" height="26" as="geometry"/>
                </mxCell>
                <mxCell id="KtXMnVQGv9gxdhzujqgW-71" value="+ PermissionDate: Time" style="text;strokeColor=none;fillColor=none;align=left;verticalAlign=top;spacingLeft=4;spacingRight=4;overflow=hidden;rotatable=0;points=[[0,0.5],[1,0.5]];portConstraint=eastwest;" parent="KtXMnVQGv9gxdhzujqgW-69" vertex="1">
                    <mxGeometry y="66" width="220" height="26" as="geometry"/>
                </mxCell>
                <mxCell id="KtXMnVQGv9gxdhzujqgW-74" value="" style="endArrow=diamondThin;endFill=0;endSize=24;html=1;exitX=0.5;exitY=0;exitDx=0;exitDy=0;" parent="KtXMnVQGv9gxdhzujqgW-1" source="KtXMnVQGv9gxdhzujqgW-75" target="KtXMnVQGv9gxdhzujqgW-71" edge="1">
                    <mxGeometry width="160" relative="1" as="geometry">
                        <mxPoint x="370" y="470" as="sourcePoint"/>
                        <mxPoint x="370" y="324" as="targetPoint"/>
                    </mxGeometry>
                </mxCell>
                <mxCell id="KtXMnVQGv9gxdhzujqgW-75" value="&lt;&lt;Entity&gt;&gt;&#10;PatientRightsType" style="swimlane;fontStyle=0;childLayout=stackLayout;horizontal=1;startSize=40;fillColor=none;horizontalStack=0;resizeParent=1;resizeParentMax=0;resizeLast=0;collapsible=1;marginBottom=0;" parent="KtXMnVQGv9gxdhzujqgW-1" vertex="1">
                    <mxGeometry x="220" y="470" width="220" height="118" as="geometry"/>
                </mxCell>
                <mxCell id="KtXMnVQGv9gxdhzujqgW-76" value="+ id: int" style="text;strokeColor=none;fillColor=none;align=left;verticalAlign=top;spacingLeft=4;spacingRight=4;overflow=hidden;rotatable=0;points=[[0,0.5],[1,0.5]];portConstraint=eastwest;" parent="KtXMnVQGv9gxdhzujqgW-75" vertex="1">
                    <mxGeometry y="40" width="220" height="26" as="geometry"/>
                </mxCell>
                <mxCell id="KtXMnVQGv9gxdhzujqgW-77" value="+ Permission: String" style="text;strokeColor=none;fillColor=none;align=left;verticalAlign=top;spacingLeft=4;spacingRight=4;overflow=hidden;rotatable=0;points=[[0,0.5],[1,0.5]];portConstraint=eastwest;" parent="KtXMnVQGv9gxdhzujqgW-75" vertex="1">
                    <mxGeometry y="66" width="220" height="26" as="geometry"/>
                </mxCell>
                <mxCell id="KtXMnVQGv9gxdhzujqgW-78" value="+ PermissionArea: String" style="text;strokeColor=none;fillColor=none;align=left;verticalAlign=top;spacingLeft=4;spacingRight=4;overflow=hidden;rotatable=0;points=[[0,0.5],[1,0.5]];portConstraint=eastwest;" parent="KtXMnVQGv9gxdhzujqgW-75" vertex="1">
                    <mxGeometry y="92" width="220" height="26" as="geometry"/>
                </mxCell>
                <mxCell id="KtXMnVQGv9gxdhzujqgW-79" value="&lt;&lt;Entity&gt;&gt;&#10;AbilityPatientRights" style="swimlane;fontStyle=0;childLayout=stackLayout;horizontal=1;startSize=40;fillColor=none;horizontalStack=0;resizeParent=1;resizeParentMax=0;resizeLast=0;collapsible=1;marginBottom=0;" parent="KtXMnVQGv9gxdhzujqgW-1" vertex="1">
                    <mxGeometry x="550" y="470" width="190" height="144" as="geometry"/>
                </mxCell>
                <mxCell id="tTvDiXppMQmByJ-DRf3X-0" value="+ id: int" style="text;strokeColor=none;fillColor=none;align=left;verticalAlign=top;spacingLeft=4;spacingRight=4;overflow=hidden;rotatable=0;points=[[0,0.5],[1,0.5]];portConstraint=eastwest;" parent="KtXMnVQGv9gxdhzujqgW-79" vertex="1">
                    <mxGeometry y="40" width="190" height="26" as="geometry"/>
                </mxCell>
                <mxCell id="KtXMnVQGv9gxdhzujqgW-80" value="+ Operative: Int" style="text;strokeColor=none;fillColor=none;align=left;verticalAlign=top;spacingLeft=4;spacingRight=4;overflow=hidden;rotatable=0;points=[[0,0.5],[1,0.5]];portConstraint=eastwest;" parent="KtXMnVQGv9gxdhzujqgW-79" vertex="1">
                    <mxGeometry y="66" width="190" height="26" as="geometry"/>
                </mxCell>
                <mxCell id="KtXMnVQGv9gxdhzujqgW-81" value="+ MedicalSupplies: Int" style="text;strokeColor=none;fillColor=none;align=left;verticalAlign=top;spacingLeft=4;spacingRight=4;overflow=hidden;rotatable=0;points=[[0,0.5],[1,0.5]];portConstraint=eastwest;" parent="KtXMnVQGv9gxdhzujqgW-79" vertex="1">
                    <mxGeometry y="92" width="190" height="26" as="geometry"/>
                </mxCell>
                <mxCell id="KtXMnVQGv9gxdhzujqgW-82" value="+ Examine: Int" style="text;strokeColor=none;fillColor=none;align=left;verticalAlign=top;spacingLeft=4;spacingRight=4;overflow=hidden;rotatable=0;points=[[0,0.5],[1,0.5]];portConstraint=eastwest;" parent="KtXMnVQGv9gxdhzujqgW-79" vertex="1">
                    <mxGeometry y="118" width="190" height="26" as="geometry"/>
                </mxCell>
                <mxCell id="KtXMnVQGv9gxdhzujqgW-83" value="" style="endArrow=diamondThin;endFill=0;endSize=24;html=1;exitX=0;exitY=0.5;exitDx=0;exitDy=0;entryX=1;entryY=0.5;entryDx=0;entryDy=0;" parent="KtXMnVQGv9gxdhzujqgW-1" source="KtXMnVQGv9gxdhzujqgW-80" target="KtXMnVQGv9gxdhzujqgW-77" edge="1">
                    <mxGeometry width="160" relative="1" as="geometry">
                        <mxPoint x="330" y="430" as="sourcePoint"/>
                        <mxPoint x="490" y="430" as="targetPoint"/>
                    </mxGeometry>
                </mxCell>
                <mxCell id="QO1SvJ0sslSycVyGzpII-0" value="Medicalrecordstaff" style="ellipse;shape=umlEntity;whiteSpace=wrap;html=1;" vertex="1" parent="KtXMnVQGv9gxdhzujqgW-1">
                    <mxGeometry x="610" y="60" width="80" height="80" as="geometry"/>
                </mxCell>
                <mxCell id="QO1SvJ0sslSycVyGzpII-1" value="" style="endArrow=diamondThin;endFill=0;endSize=24;html=1;exitX=0;exitY=0.5;exitDx=0;exitDy=0;entryX=0.5;entryY=0;entryDx=0;entryDy=0;" edge="1" parent="KtXMnVQGv9gxdhzujqgW-1" source="QO1SvJ0sslSycVyGzpII-0" target="KtXMnVQGv9gxdhzujqgW-69">
                    <mxGeometry width="160" relative="1" as="geometry">
                        <mxPoint x="270" y="116" as="sourcePoint"/>
                        <mxPoint x="380" y="101" as="targetPoint"/>
                    </mxGeometry>
                </mxCell>
            </root>
        </mxGraphModel>
    </diagram>
</mxfile>